<svg id="instagram" xmlns="http://www.w3.org/2000/svg" width="26.885" height="26.89" viewBox="0 0 26.885 26.89">
  <path id="Path_4" data-name="Path 4" d="M27.266,7.906a9.826,9.826,0,0,0-.625-3.262A6.888,6.888,0,0,0,22.706.709,9.851,9.851,0,0,0,19.444.084C18,.016,17.548,0,13.9,0S9.789.016,8.355.079A9.829,9.829,0,0,0,5.093.7,6.561,6.561,0,0,0,2.708,2.259a6.621,6.621,0,0,0-1.55,2.38A9.852,9.852,0,0,0,.533,7.9C.465,9.34.449,9.8.449,13.448s.016,4.108.079,5.542a9.825,9.825,0,0,0,.625,3.262,6.887,6.887,0,0,0,3.934,3.934,9.852,9.852,0,0,0,3.262.625c1.434.063,1.891.079,5.542.079s4.108-.016,5.542-.079a9.823,9.823,0,0,0,3.262-.625,6.878,6.878,0,0,0,3.935-3.934,9.859,9.859,0,0,0,.625-3.262c.063-1.434.079-1.891.079-5.542S27.329,9.34,27.266,7.906ZM24.845,18.885a7.37,7.37,0,0,1-.462,2.5,4.461,4.461,0,0,1-2.553,2.553,7.4,7.4,0,0,1-2.5.462c-1.418.063-1.844.079-5.432.079s-4.019-.016-5.432-.079a7.367,7.367,0,0,1-2.5-.462,4.138,4.138,0,0,1-1.544-1,4.181,4.181,0,0,1-1-1.544,7.4,7.4,0,0,1-.462-2.5c-.063-1.418-.079-1.844-.079-5.432S2.9,9.44,2.966,8.027a7.367,7.367,0,0,1,.462-2.5A4.087,4.087,0,0,1,4.436,3.987a4.174,4.174,0,0,1,1.544-1,7.4,7.4,0,0,1,2.5-.462c1.418-.063,1.844-.079,5.432-.079s4.019.016,5.432.079a7.37,7.37,0,0,1,2.5.462,4.135,4.135,0,0,1,1.544,1,4.18,4.18,0,0,1,1,1.545,7.4,7.4,0,0,1,.462,2.5c.063,1.418.079,1.844.079,5.432S24.908,17.466,24.845,18.885Zm0,0" transform="translate(-0.449 0)"/>
  <path id="Path_5" data-name="Path 5" d="M131.857,124.5a6.908,6.908,0,1,0,6.908,6.908A6.909,6.909,0,0,0,131.857,124.5Zm0,11.389a4.481,4.481,0,1,1,4.481-4.481A4.482,4.482,0,0,1,131.857,135.889Zm0,0" transform="translate(-118.409 -117.96)"/>
  <path id="Path_6" data-name="Path 6" d="M365.675,90.214a1.613,1.613,0,1,1-1.613-1.613A1.613,1.613,0,0,1,365.675,90.214Zm0,0" transform="translate(-343.433 -83.947)"/>
</svg>
