<svg id="youtube" xmlns="http://www.w3.org/2000/svg" width="27.394" height="18.833" viewBox="0 0 27.394 18.833">
  <g id="Group_38" data-name="Group 38" transform="translate(0 0)">
    <path id="Path_7" data-name="Path 7" d="M26.23,81.815c-.743-1.322-1.549-1.565-3.191-1.657C21.4,80.046,17.274,80,13.7,80s-7.706.046-9.345.156c-1.638.094-2.447.336-3.2,1.659C.394,83.135,0,85.409,0,89.411v.014c0,3.986.394,6.277,1.159,7.583.75,1.322,1.556,1.561,3.195,1.673,1.64.1,5.766.152,9.346.152s7.7-.057,9.34-.151c1.642-.111,2.448-.351,3.191-1.673.772-1.306,1.163-3.6,1.163-7.583v-.014C27.394,85.409,27,83.135,26.23,81.815ZM10.273,94.553V84.28l8.561,5.136Z" transform="translate(0 -80)"/>
  </g>
</svg>
