<svg xmlns="http://www.w3.org/2000/svg" width="60.912" height="47.317" viewBox="0 0 60.912 47.317">
  <g id="bed" transform="translate(-47 -95)">
    <path id="Path_20" data-name="Path 20" d="M136.785,116.393H96V101.665A5.682,5.682,0,0,1,101.665,96h33.988a5.682,5.682,0,0,1,5.665,5.665v14.728Z" transform="translate(-41.202)" fill="none" stroke="#fff" stroke-linecap="round" stroke-linejoin="round" stroke-width="2"/>
    <path id="Path_21" data-name="Path 21" d="M48,264.924V249.063A9.09,9.09,0,0,1,57.063,240H97.849a9.09,9.09,0,0,1,9.063,9.063v15.861" transform="translate(0 -123.607)" fill="none" stroke="#fff" stroke-linecap="round" stroke-linejoin="round" stroke-width="2"/>
    <path id="Path_22" data-name="Path 22" d="M48,388.532V387.4a3.409,3.409,0,0,1,3.4-3.4h52.114a3.409,3.409,0,0,1,3.4,3.4v1.133" transform="translate(0 -247.215)" fill="none" stroke="#fff" stroke-linecap="round" stroke-linejoin="round" stroke-width="2"/>
    <path id="Path_23" data-name="Path 23" d="M112,198.8v-2.266A4.544,4.544,0,0,1,116.532,192h11.329a4.544,4.544,0,0,1,4.532,4.532V198.8" transform="translate(-54.937 -82.405)" fill="none" stroke="#fff" stroke-linecap="round" stroke-linejoin="round" stroke-width="2"/>
    <path id="Path_24" data-name="Path 24" d="M256,198.8v-2.266A4.544,4.544,0,0,1,260.532,192h11.329a4.544,4.544,0,0,1,4.532,4.532V198.8" transform="translate(-178.544 -82.405)" fill="none" stroke="#fff" stroke-linecap="round" stroke-linejoin="round" stroke-width="2"/>
  </g>
</svg>
