<svg xmlns="http://www.w3.org/2000/svg" width="55" height="54.692" viewBox="0 0 55 54.692">
  <g id="breakfast" transform="translate(-0.001 -0.499)">
    <path id="Path_10" data-name="Path 10" d="M91.019,27.741l3.231-.2h.017a7.609,7.609,0,0,0,5.672-3.311l2.555-3.748a15.124,15.124,0,0,0,2.425-11.1,3.413,3.413,0,0,0-3.2-2.838,15.12,15.12,0,0,0-10.726,3.738l-3.415,2.986a7.61,7.61,0,0,0-2.607,6.028c0,.005,0,.011,0,.017l.184,3.232a4.549,4.549,0,0,1-1.265,3.409L57.211,53.358a3.877,3.877,0,0,0-1.038,2.877,4.457,4.457,0,0,0,4.516,4.332q.177,0,.355-.014a3.877,3.877,0,0,0,2.736-1.38L87.785,29.407A4.551,4.551,0,0,1,91.019,27.741ZM86.5,28.37l-24,29.763a2.244,2.244,0,0,1-1.588.777,2.816,2.816,0,0,1-3.092-2.741A2.241,2.241,0,0,1,58.4,54.5L85.073,27.1a6.2,6.2,0,0,0,1.728-4.65l-.184-3.224a5.968,5.968,0,0,1,2.045-4.719l3.415-2.986a13.489,13.489,0,0,1,9.562-3.333,1.765,1.765,0,0,1,1.655,1.467,13.483,13.483,0,0,1-2.162,9.893L98.577,23.3a5.969,5.969,0,0,1-4.44,2.6l-3.223.2A6.207,6.207,0,0,0,86.5,28.37Zm0,0" transform="translate(-50.135 -5.377)" fill="#fff"/>
    <path id="Path_11" data-name="Path 11" d="M312.047,303.408l-17.888-16.293a.824.824,0,1,0-1.11,1.219l17.883,16.289a2.244,2.244,0,0,1,.68,1.632,2.817,2.817,0,0,1-2.922,2.922,2.242,2.242,0,0,1-1.627-.675L291.123,291a.824.824,0,1,0-1.219,1.11l15.943,17.5a3.877,3.877,0,0,0,2.81,1.209h.086a4.463,4.463,0,0,0,4.516-4.6A3.88,3.88,0,0,0,312.047,303.408Zm0,0" transform="translate(-258.57 -255.635)" fill="#fff"/>
    <path id="Path_12" data-name="Path 12" d="M9.949,22.208a7.635,7.635,0,0,0,4.992,2.018h.017l3.238.01A4.548,4.548,0,0,1,21.523,25.7l1.426,1.566a.824.824,0,1,0,1.219-1.11L22.74,24.592a6.2,6.2,0,0,0-4.538-2l-3.229-.01A5.991,5.991,0,0,1,11.1,21.029L1.72,9.875a.285.285,0,0,1,.419-.385l8.541,8.541a2.168,2.168,0,0,0,3.062,0l1-1h0l1.782-1.782h0l1-1a2.168,2.168,0,0,0,0-3.062L8.992,2.638a.285.285,0,0,1,.385-.419L20.531,11.6a5.988,5.988,0,0,1,1.548,3.869l.01,3.229a6.209,6.209,0,0,0,2.006,4.54l1.528,1.392a.824.824,0,1,0,1.11-1.219l-1.526-1.39a4.551,4.551,0,0,1-1.47-3.329l-.01-3.238c0-.006,0-.012,0-.018a7.635,7.635,0,0,0-2.018-4.992.824.824,0,0,0-.076-.073L10.438.957A1.933,1.933,0,0,0,7.826,3.8l8.541,8.541a.517.517,0,0,1,0,.731l-.421.42L6.427,3.977A.824.824,0,0,0,5.261,5.143l9.519,9.519-.617.616L4.644,5.76A.824.824,0,0,0,3.479,6.926L13,16.445l-.42.421a.517.517,0,0,1-.731,0L3.305,8.325A1.934,1.934,0,0,0,.458,10.937l9.418,11.2A.768.768,0,0,0,9.949,22.208Zm0,0" transform="translate(0 0)" fill="#fff"/>
  </g>
</svg>
