<svg id="decoration" xmlns="http://www.w3.org/2000/svg" width="71.695" height="56.723" viewBox="0 0 71.695 56.723">
  <path id="Path_54" data-name="Path 54" d="M58.487,24.082A136.943,136.943,0,0,1,40.57,21.22l7.343,20.486L58.487,24.082Z" transform="translate(-34.889 -18.249)" fill="#fff" fill-rule="evenodd"/>
  <path id="Path_55" data-name="Path 55" d="M209.505,44.17a135.819,135.819,0,0,1-18.135,0l9.262,20.6Z" transform="translate(-164.572 -37.985)" fill="#fff" fill-rule="evenodd"/>
  <path id="Path_56" data-name="Path 56" d="M339.27,24.692A148.521,148.521,0,0,0,357.926,21.7l-6.943,20.82Z" transform="translate(-291.762 -18.661)" fill="#fff" fill-rule="evenodd"/>
  <path id="Path_57" data-name="Path 57" d="M142.643,251.751a137.1,137.1,0,0,1-18.083-1.491l8.879,19.869Z" transform="translate(-107.118 -215.216)" fill="#fff" fill-rule="evenodd"/>
  <path id="Path_58" data-name="Path 58" d="M294.883,253.54a136.053,136.053,0,0,1-18.083,1.384l10.8,19.837Z" transform="translate(-238.04 -218.037)" fill="#fff" fill-rule="evenodd"/>
  <path id="Path_59" data-name="Path 59" d="M0,0A143.9,143.9,0,0,0,35.748,4.946,134.323,134.323,0,0,0,71.7,0V2.463A131.806,131.806,0,0,1,35.748,7.328,141.3,141.3,0,0,1,0,2.467ZM13.434,32.684a116.786,116.786,0,0,0,23.195,2.221A146.989,146.989,0,0,0,61.79,32.788v2.4a144.435,144.435,0,0,1-25.161,2.1,114.549,114.549,0,0,1-23.195-2.173V32.684Z" fill="#fff"/>
</svg>
