<svg xmlns="http://www.w3.org/2000/svg" width="39.459" height="54.256" viewBox="0 0 39.459 54.256">
  <g id="dj" transform="translate(-6 -1.5)">
    <path id="Path_36" data-name="Path 36" d="M37.155,1.5H16.439A4.452,4.452,0,0,0,12,5.939V41.452a4.431,4.431,0,0,0,4.439,4.414l20.716.025a4.452,4.452,0,0,0,4.439-4.439V5.939A4.452,4.452,0,0,0,37.155,1.5ZM26.8,6.432a4.932,4.932,0,1,1-4.932,4.932A4.931,4.931,0,0,1,26.8,6.432Zm0,33.293a9.865,9.865,0,1,1,9.865-9.865A9.862,9.862,0,0,1,26.8,39.726Z" transform="translate(3.865 0)" fill="#fff"/>
    <path id="Path_37" data-name="Path 37" d="M29.581,21.165A6.165,6.165,0,1,1,23.415,15a6.165,6.165,0,0,1,6.165,6.165Z" transform="translate(7.246 8.696)" fill="#fff"/>
    <path id="Path_38" data-name="Path 38" d="M10.932,7.5H6V46.959a4.931,4.931,0,0,0,4.932,4.932H35.594V46.959H10.932Z" transform="translate(0 3.865)" fill="#fff"/>
  </g>
</svg>
