<svg xmlns="http://www.w3.org/2000/svg" width="54.883" height="63" viewBox="0 0 54.883 63">
  <g id="firecracker" transform="translate(-4.749 -1)">
    <circle id="Ellipse_16" data-name="Ellipse 16" cx="2.5" cy="2.5" r="2.5" transform="translate(46 26)" fill="none" stroke="#fff" stroke-linecap="round" stroke-linejoin="round" stroke-width="2"/>
    <circle id="Ellipse_17" data-name="Ellipse 17" cx="1.132" cy="1.132" r="1.132" transform="translate(57.368 43.368)" fill="#fff"/>
    <circle id="Ellipse_18" data-name="Ellipse 18" cx="1.132" cy="1.132" r="1.132" transform="translate(53.368 50.368)" fill="#fff"/>
    <circle id="Ellipse_19" data-name="Ellipse 19" cx="1.132" cy="1.132" r="1.132" transform="translate(50.368 43.368)" fill="#fff"/>
    <line id="Line_5" data-name="Line 5" x1="3.674" y2="3.674" transform="translate(51.163 14.663)" fill="none" stroke="#fff" stroke-linecap="round" stroke-linejoin="round" stroke-width="2"/>
    <line id="Line_6" data-name="Line 6" x2="3.674" y2="3.674" transform="translate(51.163 14.663)" fill="none" stroke="#fff" stroke-linecap="round" stroke-linejoin="round" stroke-width="2"/>
    <line id="Line_7" data-name="Line 7" x1="3.674" y2="3.674" transform="translate(6.163 43.663)" fill="none" stroke="#fff" stroke-linecap="round" stroke-linejoin="round" stroke-width="2"/>
    <line id="Line_8" data-name="Line 8" x2="3.674" y2="3.674" transform="translate(6.163 43.663)" fill="none" stroke="#fff" stroke-linecap="round" stroke-linejoin="round" stroke-width="2"/>
    <path id="Path_50" data-name="Path 50" d="M21,22V59c0,2.209,4.477,4,10,4s10-1.791,10-4V22" fill="none" stroke="#fff" stroke-linecap="round" stroke-linejoin="round" stroke-width="2"/>
    <path id="Path_51" data-name="Path 51" d="M21,51c0,2.209,4.477,4,10,4s10-1.791,10-4" fill="none" stroke="#fff" stroke-linejoin="round" stroke-width="2"/>
    <path id="Path_52" data-name="Path 52" d="M41,45c0,2.209-4.477,4-10,4s-10-1.791-10-4" fill="none" stroke="#fff" stroke-linejoin="round" stroke-width="2"/>
    <ellipse id="Ellipse_20" data-name="Ellipse 20" cx="10" cy="4" rx="10" ry="4" transform="translate(21 18)" fill="none" stroke="#fff" stroke-linecap="round" stroke-linejoin="round" stroke-width="2"/>
    <path id="Path_53" data-name="Path 53" d="M31,14s4,1,0,7" fill="none" stroke="#fff" stroke-linecap="round" stroke-linejoin="round" stroke-width="2"/>
    <line id="Line_9" data-name="Line 9" y1="4" transform="translate(31 2)" fill="none" stroke="#fff" stroke-linecap="round" stroke-linejoin="round" stroke-width="2"/>
    <line id="Line_10" data-name="Line 10" y1="3" x2="3" transform="translate(34 4)" fill="none" stroke="#fff" stroke-linecap="round" stroke-linejoin="round" stroke-width="2"/>
    <line id="Line_11" data-name="Line 11" x2="5" transform="translate(35 10)" fill="none" stroke="#fff" stroke-linecap="round" stroke-linejoin="round" stroke-width="2"/>
    <line id="Line_12" data-name="Line 12" x1="3" y1="3" transform="translate(25 4)" fill="none" stroke="#fff" stroke-linecap="round" stroke-linejoin="round" stroke-width="2"/>
    <line id="Line_13" data-name="Line 13" x1="5" transform="translate(22 10)" fill="none" stroke="#fff" stroke-linecap="round" stroke-linejoin="round" stroke-width="2"/>
    <line id="Line_14" data-name="Line 14" y2="8" transform="translate(24 29)" fill="none" stroke="#fff" stroke-linecap="round" stroke-linejoin="round" stroke-width="2"/>
    <line id="Line_15" data-name="Line 15" x2="1.215" y2="1.215" transform="translate(12.519 10.019)" fill="none" stroke="#fff" stroke-linecap="round" stroke-linejoin="round" stroke-width="2"/>
    <line id="Line_16" data-name="Line 16" x2="1.215" y2="1.215" transform="translate(8.266 5.766)" fill="none" stroke="#fff" stroke-linecap="round" stroke-linejoin="round" stroke-width="2"/>
    <line id="Line_17" data-name="Line 17" y1="1.215" x2="1.215" transform="translate(12.519 5.766)" fill="none" stroke="#fff" stroke-linecap="round" stroke-linejoin="round" stroke-width="2"/>
    <line id="Line_18" data-name="Line 18" y1="1.215" x2="1.215" transform="translate(8.266 10.019)" fill="none" stroke="#fff" stroke-linecap="round" stroke-linejoin="round" stroke-width="2"/>
  </g>
</svg>
