<svg xmlns="http://www.w3.org/2000/svg" width="50.775" height="55.006" viewBox="0 0 50.775 55.006">
  <g id="hawan" transform="translate(-4.5 -3.375)">
    <path id="Path_39" data-name="Path 39" d="M22.013,25.555a2.112,2.112,0,0,0-4.165-.278h0l-2.063,10.38a4.318,4.318,0,0,0-.106.926,4.009,4.009,0,0,0,4.231,3.967,4.009,4.009,0,0,0,4.231-3.967A4.411,4.411,0,0,0,24,35.472Z" transform="translate(9.844 17.831)" fill="#fff"/>
    <path id="Path_40" data-name="Path 40" d="M21.509,24.961Z" transform="translate(14.977 19.007)" fill="#fff"/>
    <path id="Path_41" data-name="Path 41" d="M32.594,30.264a4.807,4.807,0,0,0-.674-.516L24.039,24a1.631,1.631,0,0,0-2.182.119,1.656,1.656,0,0,0-.225,2.036l5.95,8.172a4.353,4.353,0,0,0,.45.555,3.283,3.283,0,0,0,4.575,0A3.317,3.317,0,0,0,32.594,30.264Z" transform="translate(14.866 17.843)" fill="#fff"/>
    <path id="Path_42" data-name="Path 42" d="M26.191,23.555Z" transform="translate(19.1 17.769)" fill="#fff"/>
    <path id="Path_43" data-name="Path 43" d="M34.806,22.5H26.939a1.022,1.022,0,0,0-1.071.82,1.1,1.1,0,0,0,.621,1.164H26.5l7.629,2.354a2.03,2.03,0,0,0,2.34-1.957C36.472,23.32,35.838,22.5,34.806,22.5Z" transform="translate(18.802 16.84)" fill="#fff"/>
    <path id="Path_44" data-name="Path 44" d="M9.788,23.555Z" transform="translate(4.656 17.769)" fill="#fff"/>
    <path id="Path_45" data-name="Path 45" d="M14.443,24.483h0a1.11,1.11,0,0,0,.621-1.164,1,1,0,0,0-1.071-.82H6.126c-1,0-1.626,1.1-1.626,2.327a2.036,2.036,0,0,0,2.3,2.01l7.629-2.354Z" transform="translate(0 16.84)" fill="#fff"/>
    <path id="Path_46" data-name="Path 46" d="M17.663,24,9.783,29.734a3.646,3.646,0,0,0-.674.516,3.235,3.235,0,1,0,4.575,4.575,3.594,3.594,0,0,0,.45-.555l5.95-8.145a1.619,1.619,0,0,0-.225-2.023A1.643,1.643,0,0,0,17.663,24Z" transform="translate(3.219 17.831)" fill="#fff"/>
    <g id="Group_129" data-name="Group 129" transform="translate(15.803 3.375)">
      <path id="Path_47" data-name="Path 47" d="M38.175,15.368c0-7.616-9.573-11.993-12.694-11.993,1.587,10.684-13.447,14.941-14.809,23.973A10.817,10.817,0,0,0,17.018,39.34c2.155-7.484,9.573-10,14.505-13.2C36.905,22.653,38.175,19.361,38.175,15.368Z" transform="translate(-10.51 -3.375)" fill="#fff"/>
      <path id="Path_48" data-name="Path 48" d="M33.041,22.178c.661-1.944.251-6.519-.4-8.383-1.19,2.314-3.478,4.284-6.241,6.082-1.137.74-2.764,1.428-3.94,2.1a22.8,22.8,0,0,0-6.122,4.549,8.39,8.39,0,0,0,6.122,3.663C27.223,30.165,30.925,28.38,33.041,22.178Z" transform="translate(-5.376 5.801)" fill="#fff"/>
      <path id="Path_49" data-name="Path 49" d="M12.068,17.9c1.547-2,3.292-3.147,5.051-4.787a17.12,17.12,0,0,0,3.636-4.139,6.148,6.148,0,0,0-5.91-3.451c.3,3.782-3.967,5.818-4.231,8.568A4.531,4.531,0,0,0,12.068,17.9Z" transform="translate(-10.439 -1.517)" fill="#fff"/>
    </g>
  </g>
</svg>
