<svg xmlns="http://www.w3.org/2000/svg" width="49.627" height="55.139" viewBox="0 0 49.627 55.139">
  <g id="ketttle" transform="translate(-7.986 -5)">
    <path id="Path_31" data-name="Path 31" d="M89.613,27.947a8.279,8.279,0,0,0-8.271-8.271h-9.4C70.057,17.493,65.978,16,61.124,16c-6.443,0-11.531,2.617-11.91,6.026a13,13,0,0,0-2.488,4.083H40.907a.919.919,0,0,0-.854,1.264l3.676,9.19a.908.908,0,0,0,.147.246,164.669,164.669,0,0,0-2.05,20.517v.029a6.433,6.433,0,0,0,2.926,5.386,8.271,8.271,0,0,0-4.764,7.479.919.919,0,0,0,.919.919H81.342a.919.919,0,0,0,.919-.919A8.271,8.271,0,0,0,77.5,62.741a6.433,6.433,0,0,0,2.926-5.386s0-.009,0-.014v-.015c-.007-.2-.041-1.2-.124-2.728h1.043a8.279,8.279,0,0,0,8.271-8.271ZM61.124,17.838c5.124,0,8.913,1.791,9.872,3.676H51.252C52.211,19.629,56,17.838,61.124,17.838ZM42.265,27.947h3.772a51.118,51.118,0,0,0-1.524,5.62ZM80.358,69.3H41.891a6.443,6.443,0,0,1,6.367-5.514H73.99A6.443,6.443,0,0,1,80.358,69.3ZM73.99,61.949H48.259a4.6,4.6,0,0,1-4.5-3.676H78.493a4.6,4.6,0,0,1-4.5,3.676ZM43.7,56.435c.1-2.222.422-8.05,1.226-14.255.93-7.2,2.086-11.8,3.224-14.735a.925.925,0,0,0,.059-.148,12.11,12.11,0,0,1,2.264-3.946H71.78c1.7,1.762,3.952,6.49,5.547,18.829.8,6.2,1.12,12.033,1.22,14.255ZM76.733,29.583a.623.623,0,0,0,.014-.067V27.947A2.757,2.757,0,0,1,79.5,25.19h1.838A2.757,2.757,0,0,1,84.1,27.947v18.38a2.757,2.757,0,0,1-2.757,2.757h-1.43C79.42,43.278,78.481,35.528,76.733,29.583ZM87.775,46.327a6.441,6.441,0,0,1-6.433,6.433H80.193c-.037-.574-.078-1.184-.128-1.838h1.276a4.6,4.6,0,0,0,4.595-4.595V27.947a4.6,4.6,0,0,0-4.595-4.595H79.5a4.582,4.582,0,0,0-4.08,2.527,12.748,12.748,0,0,0-2.389-3.853,3.9,3.9,0,0,0-.093-.512h8.4a6.441,6.441,0,0,1,6.433,6.433Z" transform="translate(-32 -11)" fill="#fff"/>
    <path id="Path_32" data-name="Path 32" d="M198.433,448h-5.514a.919.919,0,1,0,0,1.838h5.514a.919.919,0,1,0,0-1.838Z" transform="translate(-171.781 -396.643)" fill="#fff"/>
  </g>
</svg>
