<svg xmlns="http://www.w3.org/2000/svg" width="58.773" height="37.765" viewBox="0 0 58.773 37.765">
  <path id="people" d="M42.2,28.509a31.478,31.478,0,0,0-11.817,2.626,30.977,30.977,0,0,0-11.817-2.626c-5.7,0-17.069,2.836-17.069,8.535v7.222H59.273V37.043C59.273,31.345,47.9,28.509,42.2,28.509ZM31.7,40.326H5.439V37.043c0-1.418,6.723-4.6,13.13-4.6s13.13,3.178,13.13,4.6Zm23.635,0h-19.7V37.043a4.778,4.778,0,0,0-1.366-3.2A25.335,25.335,0,0,1,42.2,32.448c6.408,0,13.13,3.178,13.13,4.6ZM18.569,25.882a9.191,9.191,0,1,0-9.191-9.191A9.2,9.2,0,0,0,18.569,25.882Zm0-14.443a5.252,5.252,0,1,1-5.252,5.252A5.268,5.268,0,0,1,18.569,11.439ZM42.2,25.882a9.191,9.191,0,1,0-9.191-9.191A9.2,9.2,0,0,0,42.2,25.882Zm0-14.443a5.252,5.252,0,1,1-5.252,5.252A5.268,5.268,0,0,1,42.2,11.439Z" transform="translate(-1 -7)" fill="#fff" stroke="#fff" stroke-width="1"/>
</svg>
