<svg xmlns="http://www.w3.org/2000/svg" width="59.252" height="45.317" viewBox="0 0 59.252 45.317">
  <g id="wifi" transform="translate(-0.001 -59.055)">
    <g id="Group_61" data-name="Group 61" transform="translate(0.001 59.055)">
      <g id="Group_60" data-name="Group 60">
        <path id="Path_25" data-name="Path 25" d="M58.977,71.237A41.461,41.461,0,0,0,.343,71.159l-.078.078A.944.944,0,0,0,1.6,72.572,39.574,39.574,0,0,1,57.566,72.5l.071.071a.946.946,0,1,0,1.34-1.335Z" transform="translate(-0.001 -59.055)" fill="#fff"/>
      </g>
    </g>
    <g id="Group_63" data-name="Group 63" transform="translate(5.337 66.612)">
      <g id="Group_62" data-name="Group 62">
        <path id="Path_26" data-name="Path 26" d="M93.53,133.065a33.941,33.941,0,0,0-48.04,0,.944.944,0,0,0,1.335,1.335,32.054,32.054,0,0,1,45.331-.04l.04.04a.944.944,0,0,0,1.335-1.335Z" transform="translate(-45.225 -123.103)" fill="#fff"/>
      </g>
    </g>
    <g id="Group_65" data-name="Group 65" transform="translate(10.667 74.163)">
      <g id="Group_64" data-name="Group 64">
        <path id="Path_27" data-name="Path 27" d="M128.037,194.856a26.378,26.378,0,0,0-37.357,0,.944.944,0,1,0,1.337,1.334,24.488,24.488,0,0,1,34.631-.052l.052.052a.944.944,0,1,0,1.337-1.334Z" transform="translate(-90.404 -187.103)" fill="#fff"/>
      </g>
    </g>
    <g id="Group_67" data-name="Group 67" transform="translate(16.012 81.714)">
      <g id="Group_66" data-name="Group 66" transform="translate(0 0)">
        <path id="Path_28" data-name="Path 28" d="M162.657,256.638a18.855,18.855,0,0,0-26.688,0,.944.944,0,0,0,1.335,1.335,16.968,16.968,0,0,1,24-.023l.023.023a.944.944,0,0,0,1.335-1.335Z" transform="translate(-135.704 -251.104)" fill="#fff"/>
      </g>
    </g>
    <g id="Group_69" data-name="Group 69" transform="translate(21.322 89.266)">
      <g id="Group_68" data-name="Group 68">
        <path id="Path_29" data-name="Path 29" d="M197.039,318.44l-.023-.023a11.335,11.335,0,0,0-16.018,0,.944.944,0,1,0,1.308,1.361l.023-.023a9.448,9.448,0,0,1,13.356,0,.944.944,0,1,0,1.354-1.315Z" transform="translate(-180.708 -315.103)" fill="#fff"/>
      </g>
    </g>
    <g id="Group_71" data-name="Group 71" transform="translate(25.846 96.853)">
      <g id="Group_70" data-name="Group 70">
        <path id="Path_30" data-name="Path 30" d="M225.493,380.485l0,0a3.86,3.86,0,0,0-5.337,0,3.776,3.776,0,1,0,5.34,0Zm-2.671,4.554a1.888,1.888,0,1,1,1.888-1.888A1.888,1.888,0,0,1,222.822,385.038Z" transform="translate(-219.046 -379.411)" fill="#fff"/>
      </g>
    </g>
  </g>
</svg>
